Coordinates
version=1
nRows=27
nColumns=12
inDegrees=yes

Units are S.I. units (second, meters, Newtons, ...)
Angles are in degrees

endheader
time	SC_y	SC_z	SC_x	AC_y	AC_z	AC_x	GH_y	GH_z	GH_yy	EL_x	PS_y
       0.0              -57.31          21.83          50.59          56.09          7.568          7.972          1.774          79.75          89.08          67.44          111.7
   0.04474              -57.31          21.82          50.58          56.09          7.568          7.971          1.766          79.74          89.05          67.44          111.7
   0.08949              -57.31          21.82          50.58          56.09          7.568           7.97          1.759          79.72          89.03          67.45          111.7
    0.1342              -57.31          21.82          50.57          56.08          7.569          7.969           1.75          79.71           89.0          67.46          111.7
     0.179               -57.3          21.82          50.57          56.08          7.569          7.968          1.742          79.69          88.97          67.47          111.7
    0.2237               -57.3          21.81          50.56          56.08          7.569          7.967          1.732          79.68          88.94          67.47          111.7
    0.2685               -57.3          21.81          50.56          56.07          7.569          7.966          1.722          79.66          88.91          67.48          111.7
    0.3132               -57.3          21.81          50.55          56.07           7.57          7.964          1.711          79.64          88.87          67.49          111.7
    0.3579               -57.3           21.8          50.55          56.07           7.57          7.963            1.7          79.62          88.84           67.5          111.7
    0.4027               -57.3           21.8          50.54          56.06          7.571          7.961          1.688           79.6           88.8          67.52          111.7
    0.4474               -57.3           21.8          50.53          56.06          7.571           7.96          1.674          79.58          88.75          67.53          111.7
    0.4922              -57.29          21.79          50.53          56.05          7.571          7.958           1.66          79.55          88.71          67.54          111.7
    0.5369              -57.29          21.79          50.52          56.05          7.572          7.956          1.645          79.52          88.66          67.55          111.7
    0.5817              -57.29          21.78          50.51          56.04          7.573          7.954          1.628           79.5           88.6          67.57          111.7
    0.6264              -57.29          21.78           50.5          56.04          7.573          7.952           1.61          79.46          88.55          67.58          111.7
    0.6711              -57.29          21.77          50.49          56.03          7.574          7.949          1.591          79.43          88.48           67.6          111.7
    0.7159              -57.28          21.77          50.48          56.02          7.574          7.946           1.57          79.39          88.41          67.62          111.7
    0.7606              -57.28          21.76          50.47          56.01          7.575          7.944          1.547          79.35          88.34          67.64          111.7
    0.8054              -57.28          21.75          50.45           56.0          7.576           7.94          1.522          79.31          88.26          67.66          111.7
    0.8501              -57.27          21.74          50.44           56.0          7.577          7.937          1.494          79.26          88.17          67.69          111.7
    0.8949              -57.27          21.73          50.42          55.99          7.578          7.933          1.464          79.21          88.07          67.72          111.7
    0.9396              -57.27          21.72           50.4          55.97          7.579          7.929          1.431          79.15          87.96          67.75          111.7
    0.9843              -57.26          21.71          50.38          55.96           7.58          7.924          1.394          79.08          87.84          67.78          111.7
     1.029              -57.26           21.7          50.36          55.95          7.581          7.919          1.353          79.01          87.71          67.82          111.7
     1.074              -57.25          21.69          50.34          55.93          7.583          7.913          1.308          78.93          87.57          67.86          111.7
     1.119              -57.24          21.67          50.31          55.91          7.585          7.907          1.258          78.84           87.4           67.9          111.7
     1.163              -57.24          21.66          50.28           55.9          7.586            7.9          1.201          78.75          87.22          67.95          111.7
